<mxfile host="www.draw.io" modified="2019-11-27T05:27:09.785Z" agent="Mozilla/5.0 (Windows NT 10.0; Win64; x64) AppleWebKit/537.36 (KHTML, like Gecko) Chrome/78.0.3904.108 Safari/537.36" etag="06bfCNmnKYH_xWD57PUf" version="12.3.1" type="github" pages="1">
  <diagram id="lJSEZnFhlExgmXPmysFB" name="Page-1">
    <mxGraphModel dx="1929" dy="666" grid="1" gridSize="10" guides="1" tooltips="1" connect="1" arrows="1" fold="1" page="1" pageScale="1" pageWidth="827" pageHeight="1169" math="0" shadow="0">
      <root>
        <mxCell id="0"/>
        <mxCell id="1" parent="0"/>
        <mxCell id="2xV4bgSsPK4Fpn9SXGJm-24" value="" style="rounded=1;whiteSpace=wrap;html=1;fillColor=none;fontSize=18;fontFamily=Times New Roman;strokeColor=#000000;strokeWidth=2;" parent="1" vertex="1">
          <mxGeometry x="759.5" y="683" width="77" height="246" as="geometry"/>
        </mxCell>
        <mxCell id="2xV4bgSsPK4Fpn9SXGJm-44" value="" style="rounded=1;whiteSpace=wrap;html=1;fillColor=none;fontFamily=Times New Roman;fontSize=18;strokeColor=#000000;strokeWidth=2;" parent="1" vertex="1">
          <mxGeometry x="520" y="670" width="215" height="260" as="geometry"/>
        </mxCell>
        <mxCell id="eGzz-Rn0fV7NUqwpoASo-67" value="" style="rounded=1;whiteSpace=wrap;html=1;fillColor=none;fontSize=18;fontFamily=Times New Roman;strokeColor=#000000;strokeWidth=2;" parent="1" vertex="1">
          <mxGeometry x="201" y="742" width="299" height="137" as="geometry"/>
        </mxCell>
        <mxCell id="2xV4bgSsPK4Fpn9SXGJm-2" value="" style="rounded=1;whiteSpace=wrap;html=1;fillColor=none;fontFamily=Times New Roman;strokeColor=#000000;strokeWidth=2;" parent="1" vertex="1">
          <mxGeometry x="47" y="691" width="137" height="230" as="geometry"/>
        </mxCell>
        <mxCell id="ZtjSj2uJkYHvm_TxWKFo-8" value="" style="endArrow=classic;html=1;exitX=0.25;exitY=0;exitDx=0;exitDy=0;entryX=0.25;entryY=1;entryDx=0;entryDy=0;strokeColor=#000000;" parent="1" edge="1">
          <mxGeometry width="50" height="50" relative="1" as="geometry">
            <mxPoint x="807.75" y="753" as="sourcePoint"/>
            <mxPoint x="807.75" y="767" as="targetPoint"/>
          </mxGeometry>
        </mxCell>
        <mxCell id="eGzz-Rn0fV7NUqwpoASo-92" value="BLSTM" style="rounded=0;whiteSpace=wrap;html=1;fillColor=none;fontFamily=Times New Roman;fontSize=13;strokeColor=#000000;" parent="1" vertex="1">
          <mxGeometry x="775" y="767" width="45" height="22" as="geometry"/>
        </mxCell>
        <mxCell id="eGzz-Rn0fV7NUqwpoASo-36" value="&lt;font style=&quot;font-size: 15px&quot;&gt;特征图&lt;br&gt;1&lt;/font&gt;" style="shape=cube;whiteSpace=wrap;html=1;boundedLbl=1;backgroundOutline=1;darkOpacity=0.05;darkOpacity2=0.1;fillColor=none;direction=south;size=11;fontFamily=Times New Roman;strokeColor=#000000;strokeWidth=1;" parent="1" vertex="1">
          <mxGeometry x="557" y="734.5" width="35" height="190" as="geometry"/>
        </mxCell>
        <mxCell id="eGzz-Rn0fV7NUqwpoASo-37" value="&lt;font style=&quot;font-size: 15px&quot;&gt;特征图&lt;br&gt;&lt;i&gt;i&lt;/i&gt;&lt;/font&gt;" style="shape=cube;whiteSpace=wrap;html=1;boundedLbl=1;backgroundOutline=1;darkOpacity=0.05;darkOpacity2=0.1;fillColor=none;direction=south;size=11;fontStyle=0;fontFamily=Times New Roman;strokeColor=#000000;" parent="1" vertex="1">
          <mxGeometry x="624" y="734.5" width="35" height="190" as="geometry"/>
        </mxCell>
        <mxCell id="eGzz-Rn0fV7NUqwpoASo-38" value="&lt;font style=&quot;font-size: 15px&quot;&gt;特征图&lt;br&gt;32&lt;/font&gt;" style="shape=cube;whiteSpace=wrap;html=1;boundedLbl=1;backgroundOutline=1;darkOpacity=0.05;darkOpacity2=0.1;fillColor=none;direction=south;size=11;fontStyle=0;fontFamily=Times New Roman;strokeColor=#000000;" parent="1" vertex="1">
          <mxGeometry x="691" y="734.5" width="35" height="190" as="geometry"/>
        </mxCell>
        <mxCell id="eGzz-Rn0fV7NUqwpoASo-44" value="卷积层" style="rounded=0;whiteSpace=wrap;html=1;fillColor=none;fontSize=18;fontFamily=Times New Roman;strokeColor=#000000;" parent="1" vertex="1">
          <mxGeometry x="207" y="784" width="80" height="60" as="geometry"/>
        </mxCell>
        <mxCell id="eGzz-Rn0fV7NUqwpoASo-50" value="池化" style="rounded=0;whiteSpace=wrap;html=1;fillColor=none;fontSize=18;fontFamily=Times New Roman;strokeColor=#000000;" parent="1" vertex="1">
          <mxGeometry x="287" y="784" width="50" height="60" as="geometry"/>
        </mxCell>
        <mxCell id="eGzz-Rn0fV7NUqwpoASo-52" value="BLSTM" style="rounded=0;whiteSpace=wrap;html=1;fillColor=none;fontFamily=Times New Roman;fontSize=13;strokeColor=#000000;" parent="1" vertex="1">
          <mxGeometry x="775" y="731" width="45" height="22" as="geometry"/>
        </mxCell>
        <mxCell id="eGzz-Rn0fV7NUqwpoASo-64" value="卷积层" style="rounded=0;whiteSpace=wrap;html=1;fillColor=none;fontSize=18;fontFamily=Times New Roman;strokeColor=#000000;" parent="1" vertex="1">
          <mxGeometry x="362" y="784" width="80" height="60" as="geometry"/>
        </mxCell>
        <mxCell id="eGzz-Rn0fV7NUqwpoASo-65" value="池化" style="rounded=0;whiteSpace=wrap;html=1;fillColor=none;fontSize=18;fontFamily=Times New Roman;strokeColor=#000000;" parent="1" vertex="1">
          <mxGeometry x="442" y="784" width="50" height="60" as="geometry"/>
        </mxCell>
        <mxCell id="eGzz-Rn0fV7NUqwpoASo-68" value="CNN网络" style="text;html=1;strokeColor=none;fillColor=none;align=center;verticalAlign=middle;whiteSpace=wrap;rounded=0;fontSize=18;fontFamily=Times New Roman;" parent="1" vertex="1">
          <mxGeometry x="279.5" y="744" width="120" height="40" as="geometry"/>
        </mxCell>
        <mxCell id="eGzz-Rn0fV7NUqwpoASo-70" value="1*100*64" style="text;html=1;strokeColor=none;fillColor=none;align=center;verticalAlign=middle;whiteSpace=wrap;rounded=0;fontSize=18;fontFamily=Times New Roman;" parent="1" vertex="1">
          <mxGeometry x="238" y="854" width="124" height="20" as="geometry"/>
        </mxCell>
        <mxCell id="eGzz-Rn0fV7NUqwpoASo-71" value="1*50*32" style="text;html=1;strokeColor=none;fillColor=none;align=center;verticalAlign=middle;whiteSpace=wrap;rounded=0;fontSize=18;fontFamily=Times New Roman;" parent="1" vertex="1">
          <mxGeometry x="392.5" y="854" width="124" height="20" as="geometry"/>
        </mxCell>
        <mxCell id="eGzz-Rn0fV7NUqwpoASo-72" value="" style="shape=curlyBracket;whiteSpace=wrap;html=1;rounded=1;fillColor=none;fontSize=18;fontFamily=Times New Roman;strokeColor=#000000;" parent="1" vertex="1">
          <mxGeometry x="531" y="744.5" width="20" height="175" as="geometry"/>
        </mxCell>
        <mxCell id="eGzz-Rn0fV7NUqwpoASo-73" value="50" style="text;html=1;resizable=0;points=[];autosize=1;align=left;verticalAlign=top;spacingTop=-4;fontSize=18;fontFamily=Times New Roman;" parent="1" vertex="1">
          <mxGeometry x="518.5" y="834.5" width="40" height="20" as="geometry"/>
        </mxCell>
        <mxCell id="eGzz-Rn0fV7NUqwpoASo-74" value="" style="shape=curlyBracket;whiteSpace=wrap;html=1;rounded=1;fillColor=none;fontSize=18;direction=south;fontFamily=Times New Roman;strokeColor=#000000;" parent="1" vertex="1">
          <mxGeometry x="563" y="708.5" width="158" height="20" as="geometry"/>
        </mxCell>
        <mxCell id="eGzz-Rn0fV7NUqwpoASo-75" value="特征向量&lt;br&gt;&amp;nbsp; &amp;nbsp; &amp;nbsp; 32" style="text;html=1;resizable=0;points=[];autosize=1;align=left;verticalAlign=top;spacingTop=-4;fontSize=18;fontFamily=Times New Roman;" parent="1" vertex="1">
          <mxGeometry x="604" y="669.5" width="90" height="40" as="geometry"/>
        </mxCell>
        <mxCell id="eGzz-Rn0fV7NUqwpoASo-76" value="" style="endArrow=none;dashed=1;html=1;fontSize=18;entryX=0;entryY=0;entryDx=11;entryDy=35;entryPerimeter=0;exitX=0;exitY=0;exitDx=11;exitDy=35;exitPerimeter=0;fontFamily=Times New Roman;strokeColor=#000000;" parent="1" source="eGzz-Rn0fV7NUqwpoASo-38" target="eGzz-Rn0fV7NUqwpoASo-36" edge="1">
          <mxGeometry width="50" height="50" relative="1" as="geometry">
            <mxPoint x="314" y="733.5" as="sourcePoint"/>
            <mxPoint x="556" y="739.5" as="targetPoint"/>
          </mxGeometry>
        </mxCell>
        <mxCell id="eGzz-Rn0fV7NUqwpoASo-77" value="" style="endArrow=none;dashed=1;html=1;fontSize=18;entryX=0;entryY=0;entryDx=0;entryDy=24;entryPerimeter=0;exitX=0;exitY=0;exitDx=0;exitDy=24;exitPerimeter=0;fontFamily=Times New Roman;strokeColor=#000000;" parent="1" source="eGzz-Rn0fV7NUqwpoASo-38" target="eGzz-Rn0fV7NUqwpoASo-36" edge="1">
          <mxGeometry width="50" height="50" relative="1" as="geometry">
            <mxPoint x="436" y="749.5" as="sourcePoint"/>
            <mxPoint x="486" y="699.5" as="targetPoint"/>
          </mxGeometry>
        </mxCell>
        <mxCell id="eGzz-Rn0fV7NUqwpoASo-78" value="" style="endArrow=none;dashed=1;html=1;fontSize=18;entryX=0.149;entryY=1;entryDx=0;entryDy=0;entryPerimeter=0;exitX=0.149;exitY=0.286;exitDx=0;exitDy=0;exitPerimeter=0;fontFamily=Times New Roman;strokeColor=#000000;" parent="1" edge="1">
          <mxGeometry width="50" height="50" relative="1" as="geometry">
            <mxPoint x="715.99" y="765.81" as="sourcePoint"/>
            <mxPoint x="557" y="765.81" as="targetPoint"/>
          </mxGeometry>
        </mxCell>
        <mxCell id="eGzz-Rn0fV7NUqwpoASo-79" value="" style="endArrow=none;dashed=1;html=1;fontSize=18;entryX=0.112;entryY=0.009;entryDx=0;entryDy=0;entryPerimeter=0;exitX=0.114;exitY=0.743;exitDx=0;exitDy=0;exitPerimeter=0;fontFamily=Times New Roman;strokeColor=#000000;" parent="1" source="eGzz-Rn0fV7NUqwpoASo-36" target="eGzz-Rn0fV7NUqwpoASo-38" edge="1">
          <mxGeometry width="50" height="50" relative="1" as="geometry">
            <mxPoint x="456" y="769.5" as="sourcePoint"/>
            <mxPoint x="506" y="719.5" as="targetPoint"/>
          </mxGeometry>
        </mxCell>
        <mxCell id="eGzz-Rn0fV7NUqwpoASo-84" value="" style="endArrow=none;dashed=1;html=1;fontSize=18;fontFamily=Times New Roman;strokeColor=#000000;" parent="1" edge="1">
          <mxGeometry width="50" height="50" relative="1" as="geometry">
            <mxPoint x="557" y="904.5" as="sourcePoint"/>
            <mxPoint x="716" y="904.5" as="targetPoint"/>
          </mxGeometry>
        </mxCell>
        <mxCell id="eGzz-Rn0fV7NUqwpoASo-85" value="" style="endArrow=none;dashed=1;html=1;fontSize=18;fontFamily=Times New Roman;strokeColor=#000000;" parent="1" edge="1">
          <mxGeometry width="50" height="50" relative="1" as="geometry">
            <mxPoint x="557" y="924.5" as="sourcePoint"/>
            <mxPoint x="716" y="924.5" as="targetPoint"/>
          </mxGeometry>
        </mxCell>
        <mxCell id="eGzz-Rn0fV7NUqwpoASo-86" value="" style="endArrow=none;dashed=1;html=1;fontSize=18;fontFamily=Times New Roman;strokeColor=#000000;" parent="1" edge="1">
          <mxGeometry width="50" height="50" relative="1" as="geometry">
            <mxPoint x="567" y="894.5" as="sourcePoint"/>
            <mxPoint x="726" y="894.5" as="targetPoint"/>
          </mxGeometry>
        </mxCell>
        <mxCell id="eGzz-Rn0fV7NUqwpoASo-88" value="" style="endArrow=none;html=1;fontSize=18;fontFamily=Times New Roman;strokeColor=#000000;" parent="1" edge="1">
          <mxGeometry width="50" height="50" relative="1" as="geometry">
            <mxPoint x="716" y="766" as="sourcePoint"/>
            <mxPoint x="726" y="756" as="targetPoint"/>
          </mxGeometry>
        </mxCell>
        <mxCell id="eGzz-Rn0fV7NUqwpoASo-89" value="" style="endArrow=none;dashed=1;html=1;fontSize=18;fontFamily=Times New Roman;strokeColor=#000000;" parent="1" edge="1">
          <mxGeometry width="50" height="50" relative="1" as="geometry">
            <mxPoint x="557" y="766" as="sourcePoint"/>
            <mxPoint x="567" y="756" as="targetPoint"/>
          </mxGeometry>
        </mxCell>
        <mxCell id="eGzz-Rn0fV7NUqwpoASo-90" value="" style="endArrow=none;dashed=1;html=1;fontSize=18;fontFamily=Times New Roman;strokeColor=#000000;" parent="1" edge="1">
          <mxGeometry width="50" height="50" relative="1" as="geometry">
            <mxPoint x="557" y="904.5" as="sourcePoint"/>
            <mxPoint x="567" y="894.5" as="targetPoint"/>
          </mxGeometry>
        </mxCell>
        <mxCell id="eGzz-Rn0fV7NUqwpoASo-91" value="" style="endArrow=none;html=1;fontSize=18;fontFamily=Times New Roman;strokeColor=#000000;" parent="1" edge="1">
          <mxGeometry width="50" height="50" relative="1" as="geometry">
            <mxPoint x="715" y="904.5" as="sourcePoint"/>
            <mxPoint x="725" y="894.5" as="targetPoint"/>
          </mxGeometry>
        </mxCell>
        <mxCell id="eGzz-Rn0fV7NUqwpoASo-106" value="均值池化特征" style="rounded=1;whiteSpace=wrap;html=1;fillColor=none;fontSize=18;fontFamily=Times New Roman;strokeColor=#000000;strokeWidth=1;" parent="1" vertex="1">
          <mxGeometry x="856" y="725.5" width="50" height="190" as="geometry"/>
        </mxCell>
        <mxCell id="eGzz-Rn0fV7NUqwpoASo-107" value="" style="shape=cross;whiteSpace=wrap;html=1;fillColor=none;fontSize=18;fontFamily=Times New Roman;strokeColor=#000000;" parent="1" vertex="1">
          <mxGeometry x="908" y="789.5" width="30" height="35" as="geometry"/>
        </mxCell>
        <mxCell id="eGzz-Rn0fV7NUqwpoASo-108" value="优势特征" style="rounded=1;whiteSpace=wrap;html=1;fillColor=none;fontSize=18;fontFamily=Times New Roman;strokeColor=#000000;" parent="1" vertex="1">
          <mxGeometry x="941" y="723.5" width="50" height="190" as="geometry"/>
        </mxCell>
        <mxCell id="eGzz-Rn0fV7NUqwpoASo-109" value="全连接层&lt;br&gt;+&lt;br&gt;soft&lt;br&gt;max&lt;br&gt;层" style="rounded=1;whiteSpace=wrap;html=1;fillColor=none;fontSize=18;fontFamily=Times New Roman;strokeColor=#000000;" parent="1" vertex="1">
          <mxGeometry x="1082" y="723.5" width="50" height="190" as="geometry"/>
        </mxCell>
        <mxCell id="eGzz-Rn0fV7NUqwpoASo-110" value="当前行为&lt;br&gt;类别输出" style="rounded=1;whiteSpace=wrap;html=1;fillColor=none;fontSize=18;fontFamily=Times New Roman;strokeColor=#000000;" parent="1" vertex="1">
          <mxGeometry x="1151" y="723.5" width="50" height="190" as="geometry"/>
        </mxCell>
        <mxCell id="2xV4bgSsPK4Fpn9SXGJm-1" value="" style="shape=flexArrow;endArrow=classic;html=1;fontFamily=Times New Roman;strokeColor=#000000;" parent="1" edge="1">
          <mxGeometry width="50" height="50" relative="1" as="geometry">
            <mxPoint x="985" y="810" as="sourcePoint"/>
            <mxPoint x="1014" y="810" as="targetPoint"/>
          </mxGeometry>
        </mxCell>
        <mxCell id="2xV4bgSsPK4Fpn9SXGJm-3" value="BLSTM网络" style="text;html=1;strokeColor=none;fillColor=none;align=center;verticalAlign=middle;whiteSpace=wrap;rounded=0;fontSize=18;fontFamily=Times New Roman;" parent="1" vertex="1">
          <mxGeometry x="768.5" y="697" width="59" height="20" as="geometry"/>
        </mxCell>
        <mxCell id="2xV4bgSsPK4Fpn9SXGJm-9" value="" style="endArrow=none;dashed=1;html=1;fontSize=18;entryX=0.149;entryY=1;entryDx=0;entryDy=0;entryPerimeter=0;exitX=0.149;exitY=0.286;exitDx=0;exitDy=0;exitPerimeter=0;fontFamily=Times New Roman;strokeColor=#000000;" parent="1" edge="1">
          <mxGeometry width="50" height="50" relative="1" as="geometry">
            <mxPoint x="715" y="783.81" as="sourcePoint"/>
            <mxPoint x="557" y="783.81" as="targetPoint"/>
          </mxGeometry>
        </mxCell>
        <mxCell id="2xV4bgSsPK4Fpn9SXGJm-12" value="传感器通道1" style="rounded=0;whiteSpace=wrap;html=1;fillColor=none;fontSize=18;fontFamily=Times New Roman;strokeColor=#000000;" parent="1" vertex="1">
          <mxGeometry x="51" y="721.5" width="118" height="40" as="geometry"/>
        </mxCell>
        <mxCell id="2xV4bgSsPK4Fpn9SXGJm-14" value="传感器通道&lt;i&gt;i&lt;/i&gt;" style="rounded=0;whiteSpace=wrap;html=1;fillColor=none;fontSize=18;fontFamily=Times New Roman;strokeColor=#000000;" parent="1" vertex="1">
          <mxGeometry x="51" y="790.5" width="118" height="40" as="geometry"/>
        </mxCell>
        <mxCell id="2xV4bgSsPK4Fpn9SXGJm-15" value="传感器通道12" style="rounded=0;whiteSpace=wrap;html=1;fillColor=none;fontSize=18;fontFamily=Times New Roman;strokeColor=#000000;" parent="1" vertex="1">
          <mxGeometry x="51" y="859.5" width="118" height="40" as="geometry"/>
        </mxCell>
        <mxCell id="2xV4bgSsPK4Fpn9SXGJm-38" value="&lt;b&gt;…&lt;/b&gt;" style="text;html=1;strokeColor=none;fillColor=none;align=center;verticalAlign=middle;whiteSpace=wrap;rounded=0;fontFamily=Times New Roman;fontSize=18;direction=west;" parent="1" vertex="1">
          <mxGeometry x="651" y="817" width="40" height="20" as="geometry"/>
        </mxCell>
        <mxCell id="2xV4bgSsPK4Fpn9SXGJm-39" value="&lt;b&gt;…&lt;/b&gt;" style="text;html=1;strokeColor=none;fillColor=none;align=center;verticalAlign=middle;whiteSpace=wrap;rounded=0;fontFamily=Times New Roman;fontSize=18;direction=west;rotation=90;strokeWidth=7;" parent="1" vertex="1">
          <mxGeometry x="92.5" y="766" width="40" height="20" as="geometry"/>
        </mxCell>
        <mxCell id="2xV4bgSsPK4Fpn9SXGJm-40" value="&lt;b&gt;…&lt;/b&gt;" style="text;html=1;strokeColor=none;fillColor=none;align=center;verticalAlign=middle;whiteSpace=wrap;rounded=0;fontFamily=Times New Roman;fontSize=18;direction=west;rotation=90;" parent="1" vertex="1">
          <mxGeometry x="92.5" y="834.5" width="40" height="20" as="geometry"/>
        </mxCell>
        <mxCell id="2xV4bgSsPK4Fpn9SXGJm-41" value="&lt;b&gt;…&lt;/b&gt;" style="text;html=1;strokeColor=none;fillColor=none;align=center;verticalAlign=middle;whiteSpace=wrap;rounded=0;fontFamily=Times New Roman;fontSize=18;direction=west;" parent="1" vertex="1">
          <mxGeometry x="584.5" y="817" width="40" height="20" as="geometry"/>
        </mxCell>
        <mxCell id="2xV4bgSsPK4Fpn9SXGJm-42" value="&lt;b&gt;&lt;font style=&quot;font-size: 18px&quot;&gt;…&lt;/font&gt;&lt;/b&gt;" style="text;html=1;strokeColor=none;fillColor=none;align=center;verticalAlign=middle;whiteSpace=wrap;rounded=0;fontFamily=Times New Roman;fontSize=13;direction=west;rotation=90;" parent="1" vertex="1">
          <mxGeometry x="793.5" y="839" width="17" height="13" as="geometry"/>
        </mxCell>
        <mxCell id="2xV4bgSsPK4Fpn9SXGJm-43" value="输入数据" style="text;html=1;strokeColor=none;fillColor=none;align=center;verticalAlign=middle;whiteSpace=wrap;rounded=0;fontFamily=Times New Roman;fontSize=18;" parent="1" vertex="1">
          <mxGeometry x="56" y="697.5" width="100" height="20" as="geometry"/>
        </mxCell>
        <mxCell id="2xV4bgSsPK4Fpn9SXGJm-55" value="" style="shape=flexArrow;endArrow=classic;html=1;fontFamily=Times New Roman;fontSize=18;width=7.5;endSize=7.986111111111111;endWidth=11.527777777777777;" parent="1" edge="1">
          <mxGeometry width="50" height="50" relative="1" as="geometry">
            <mxPoint x="723" y="744.5" as="sourcePoint"/>
            <mxPoint x="766.5" y="744.5" as="targetPoint"/>
          </mxGeometry>
        </mxCell>
        <mxCell id="2xV4bgSsPK4Fpn9SXGJm-56" value="" style="shape=flexArrow;endArrow=classic;html=1;fontFamily=Times New Roman;fontSize=18;width=7.5;endSize=7.986111111111111;endWidth=11.527777777777777;" parent="1" edge="1">
          <mxGeometry width="50" height="50" relative="1" as="geometry">
            <mxPoint x="723" y="775.5" as="sourcePoint"/>
            <mxPoint x="766.5" y="775.5" as="targetPoint"/>
          </mxGeometry>
        </mxCell>
        <mxCell id="2xV4bgSsPK4Fpn9SXGJm-57" value="BLSTM" style="rounded=0;whiteSpace=wrap;html=1;fillColor=none;fontFamily=Times New Roman;fontSize=13;strokeColor=#000000;" parent="1" vertex="1">
          <mxGeometry x="775.5" y="867" width="45" height="22" as="geometry"/>
        </mxCell>
        <mxCell id="2xV4bgSsPK4Fpn9SXGJm-58" value="BLSTM" style="rounded=0;whiteSpace=wrap;html=1;fillColor=none;fontFamily=Times New Roman;fontSize=13;strokeColor=#000000;" parent="1" vertex="1">
          <mxGeometry x="775.5" y="903" width="45" height="22" as="geometry"/>
        </mxCell>
        <mxCell id="2xV4bgSsPK4Fpn9SXGJm-60" value="" style="shape=flexArrow;endArrow=classic;html=1;fontFamily=Times New Roman;fontSize=18;width=7.5;endSize=7.986111111111111;endWidth=11.527777777777777;" parent="1" edge="1">
          <mxGeometry width="50" height="50" relative="1" as="geometry">
            <mxPoint x="722.5" y="909" as="sourcePoint"/>
            <mxPoint x="766" y="909" as="targetPoint"/>
          </mxGeometry>
        </mxCell>
        <mxCell id="2xV4bgSsPK4Fpn9SXGJm-62" value="BLSTM" style="rounded=0;whiteSpace=wrap;html=1;fillColor=none;fontFamily=Times New Roman;fontSize=13;strokeColor=#000000;" parent="1" vertex="1">
          <mxGeometry x="775" y="803.5" width="45" height="22" as="geometry"/>
        </mxCell>
        <mxCell id="2xV4bgSsPK4Fpn9SXGJm-67" value="" style="shape=flexArrow;endArrow=classic;html=1;fontFamily=Times New Roman;fontSize=18;width=7.5;endSize=7.986111111111111;endWidth=11.527777777777777;" parent="1" edge="1">
          <mxGeometry width="50" height="50" relative="1" as="geometry">
            <mxPoint x="722.5" y="814" as="sourcePoint"/>
            <mxPoint x="766" y="814" as="targetPoint"/>
          </mxGeometry>
        </mxCell>
        <mxCell id="2xV4bgSsPK4Fpn9SXGJm-68" value="1*200" style="text;html=1;strokeColor=none;fillColor=none;align=center;verticalAlign=middle;whiteSpace=wrap;rounded=0;fontFamily=Times New Roman;fontSize=18;" parent="1" vertex="1">
          <mxGeometry x="116" y="764.5" width="40" height="20" as="geometry"/>
        </mxCell>
        <mxCell id="2xV4bgSsPK4Fpn9SXGJm-69" value="1*200" style="text;html=1;strokeColor=none;fillColor=none;align=center;verticalAlign=middle;whiteSpace=wrap;rounded=0;fontFamily=Times New Roman;fontSize=18;" parent="1" vertex="1">
          <mxGeometry x="115" y="836.5" width="40" height="20" as="geometry"/>
        </mxCell>
        <mxCell id="2xV4bgSsPK4Fpn9SXGJm-70" value="1*200" style="text;html=1;strokeColor=none;fillColor=none;align=center;verticalAlign=middle;whiteSpace=wrap;rounded=0;fontFamily=Times New Roman;fontSize=18;" parent="1" vertex="1">
          <mxGeometry x="115" y="898.5" width="40" height="20" as="geometry"/>
        </mxCell>
        <mxCell id="2xV4bgSsPK4Fpn9SXGJm-72" value="" style="shape=flexArrow;endArrow=classic;html=1;fontFamily=Times New Roman;strokeColor=#000000;" parent="1" edge="1">
          <mxGeometry width="50" height="50" relative="1" as="geometry">
            <mxPoint x="831.5" y="810" as="sourcePoint"/>
            <mxPoint x="860.5" y="810" as="targetPoint"/>
          </mxGeometry>
        </mxCell>
        <mxCell id="2xV4bgSsPK4Fpn9SXGJm-73" value="" style="shape=flexArrow;endArrow=classic;html=1;fontFamily=Times New Roman;strokeColor=#000000;" parent="1" edge="1">
          <mxGeometry width="50" height="50" relative="1" as="geometry">
            <mxPoint x="495.49999999999955" y="815" as="sourcePoint"/>
            <mxPoint x="524.5" y="815" as="targetPoint"/>
          </mxGeometry>
        </mxCell>
        <mxCell id="2xV4bgSsPK4Fpn9SXGJm-75" value="" style="shape=flexArrow;endArrow=classic;html=1;fontFamily=Times New Roman;" parent="1" edge="1">
          <mxGeometry width="50" height="50" relative="1" as="geometry">
            <mxPoint x="176.99999999999955" y="815" as="sourcePoint"/>
            <mxPoint x="206" y="815" as="targetPoint"/>
          </mxGeometry>
        </mxCell>
        <mxCell id="2xV4bgSsPK4Fpn9SXGJm-77" value="" style="shape=flexArrow;endArrow=classic;html=1;fontFamily=Times New Roman;" parent="1" edge="1">
          <mxGeometry width="50" height="50" relative="1" as="geometry">
            <mxPoint x="336.99999999999955" y="815" as="sourcePoint"/>
            <mxPoint x="362" y="815" as="targetPoint"/>
          </mxGeometry>
        </mxCell>
        <mxCell id="2xV4bgSsPK4Fpn9SXGJm-98" value="&lt;b&gt;…&lt;/b&gt;" style="text;html=1;strokeColor=none;fillColor=none;align=center;verticalAlign=middle;whiteSpace=wrap;rounded=0;fontFamily=Times New Roman;fontSize=18;direction=west;rotation=90;" parent="1" vertex="1">
          <mxGeometry x="729.5" y="854.5" width="40" height="10" as="geometry"/>
        </mxCell>
        <mxCell id="ZtjSj2uJkYHvm_TxWKFo-5" value="" style="endArrow=classic;html=1;exitX=0.25;exitY=0;exitDx=0;exitDy=0;entryX=0.25;entryY=1;entryDx=0;entryDy=0;strokeColor=#000000;" parent="1" source="eGzz-Rn0fV7NUqwpoASo-92" target="eGzz-Rn0fV7NUqwpoASo-52" edge="1">
          <mxGeometry width="50" height="50" relative="1" as="geometry">
            <mxPoint x="674" y="799" as="sourcePoint"/>
            <mxPoint x="724" y="749" as="targetPoint"/>
          </mxGeometry>
        </mxCell>
        <mxCell id="ZtjSj2uJkYHvm_TxWKFo-6" value="" style="endArrow=classic;html=1;exitX=0.25;exitY=0;exitDx=0;exitDy=0;entryX=0.25;entryY=1;entryDx=0;entryDy=0;strokeColor=#000000;" parent="1" edge="1">
          <mxGeometry width="50" height="50" relative="1" as="geometry">
            <mxPoint x="785.75" y="803.5" as="sourcePoint"/>
            <mxPoint x="785.75" y="789" as="targetPoint"/>
          </mxGeometry>
        </mxCell>
        <mxCell id="ZtjSj2uJkYHvm_TxWKFo-7" value="" style="endArrow=classic;html=1;exitX=0.25;exitY=0;exitDx=0;exitDy=0;entryX=0.25;entryY=1;entryDx=0;entryDy=0;strokeColor=#000000;" parent="1" edge="1">
          <mxGeometry width="50" height="50" relative="1" as="geometry">
            <mxPoint x="785.75" y="903" as="sourcePoint"/>
            <mxPoint x="785.75" y="889" as="targetPoint"/>
          </mxGeometry>
        </mxCell>
        <mxCell id="ZtjSj2uJkYHvm_TxWKFo-10" value="" style="endArrow=classic;html=1;exitX=0.25;exitY=0;exitDx=0;exitDy=0;entryX=0.25;entryY=1;entryDx=0;entryDy=0;strokeColor=#000000;" parent="1" edge="1">
          <mxGeometry width="50" height="50" relative="1" as="geometry">
            <mxPoint x="807.75" y="789" as="sourcePoint"/>
            <mxPoint x="807.75" y="803" as="targetPoint"/>
          </mxGeometry>
        </mxCell>
        <mxCell id="ZtjSj2uJkYHvm_TxWKFo-11" value="" style="endArrow=classic;html=1;exitX=0.25;exitY=0;exitDx=0;exitDy=0;entryX=0.25;entryY=1;entryDx=0;entryDy=0;strokeColor=#000000;" parent="1" edge="1">
          <mxGeometry width="50" height="50" relative="1" as="geometry">
            <mxPoint x="807.75" y="889" as="sourcePoint"/>
            <mxPoint x="807.75" y="903" as="targetPoint"/>
          </mxGeometry>
        </mxCell>
        <mxCell id="ZtjSj2uJkYHvm_TxWKFo-13" value="" style="shape=flexArrow;endArrow=classic;html=1;fontFamily=Times New Roman;strokeColor=#000000;" parent="1" edge="1">
          <mxGeometry width="50" height="50" relative="1" as="geometry">
            <mxPoint x="1128" y="810" as="sourcePoint"/>
            <mxPoint x="1157" y="810" as="targetPoint"/>
          </mxGeometry>
        </mxCell>
        <mxCell id="ZtjSj2uJkYHvm_TxWKFo-15" value="特征融合" style="text;html=1;strokeColor=none;fillColor=none;align=center;verticalAlign=middle;whiteSpace=wrap;rounded=0;fontSize=18;" parent="1" vertex="1">
          <mxGeometry x="874" y="695" width="79" height="20" as="geometry"/>
        </mxCell>
        <mxCell id="3uppgYlmmr_DsJyYe-Iu-1" value="融合特征向量" style="rounded=1;whiteSpace=wrap;html=1;fillColor=none;fontSize=18;fontFamily=Times New Roman;strokeColor=#000000;" parent="1" vertex="1">
          <mxGeometry x="1007" y="723.5" width="50" height="190" as="geometry"/>
        </mxCell>
        <mxCell id="3uppgYlmmr_DsJyYe-Iu-2" value="" style="shape=flexArrow;endArrow=classic;html=1;fontFamily=Times New Roman;strokeColor=#000000;" parent="1" edge="1">
          <mxGeometry width="50" height="50" relative="1" as="geometry">
            <mxPoint x="1060" y="810" as="sourcePoint"/>
            <mxPoint x="1089" y="810" as="targetPoint"/>
          </mxGeometry>
        </mxCell>
        <mxCell id="YC8aZW9m34SwdmUY51Wp-1" value="" style="rounded=1;whiteSpace=wrap;html=1;fillColor=none;strokeWidth=2;" vertex="1" parent="1">
          <mxGeometry x="850" y="684" width="213" height="240" as="geometry"/>
        </mxCell>
        <mxCell id="YC8aZW9m34SwdmUY51Wp-3" value="" style="rounded=1;whiteSpace=wrap;html=1;fillColor=none;strokeWidth=2;" vertex="1" parent="1">
          <mxGeometry x="1077" y="684" width="132" height="240" as="geometry"/>
        </mxCell>
        <mxCell id="YC8aZW9m34SwdmUY51Wp-4" value="&lt;font style=&quot;font-size: 18px&quot;&gt;行为分类&lt;/font&gt;" style="text;html=1;strokeColor=none;fillColor=none;align=center;verticalAlign=middle;whiteSpace=wrap;rounded=0;" vertex="1" parent="1">
          <mxGeometry x="1090" y="695" width="80" height="20" as="geometry"/>
        </mxCell>
        <mxCell id="YC8aZW9m34SwdmUY51Wp-5" value="" style="rounded=1;whiteSpace=wrap;html=1;fillColor=none;fontSize=18;fontFamily=Times New Roman;strokeColor=#FF0000;strokeWidth=2;" vertex="1" parent="1">
          <mxGeometry x="713.5" y="1243.5" width="77" height="246" as="geometry"/>
        </mxCell>
        <mxCell id="YC8aZW9m34SwdmUY51Wp-6" value="" style="rounded=1;whiteSpace=wrap;html=1;fillColor=none;fontFamily=Times New Roman;fontSize=18;strokeColor=#0000FF;strokeWidth=2;" vertex="1" parent="1">
          <mxGeometry x="473" y="1230.5" width="215" height="260" as="geometry"/>
        </mxCell>
        <mxCell id="YC8aZW9m34SwdmUY51Wp-7" value="" style="rounded=1;whiteSpace=wrap;html=1;fillColor=none;fontSize=18;fontFamily=Times New Roman;strokeColor=#00FF00;strokeWidth=2;" vertex="1" parent="1">
          <mxGeometry x="154" y="1302.5" width="299" height="137" as="geometry"/>
        </mxCell>
        <mxCell id="YC8aZW9m34SwdmUY51Wp-8" value="" style="rounded=1;whiteSpace=wrap;html=1;fillColor=none;fontFamily=Times New Roman;strokeColor=#9933FF;strokeWidth=2;" vertex="1" parent="1">
          <mxGeometry y="1251.5" width="137" height="230" as="geometry"/>
        </mxCell>
        <mxCell id="YC8aZW9m34SwdmUY51Wp-9" value="" style="endArrow=classic;html=1;exitX=0.25;exitY=0;exitDx=0;exitDy=0;entryX=0.25;entryY=1;entryDx=0;entryDy=0;strokeColor=#000000;" edge="1" parent="1">
          <mxGeometry width="50" height="50" relative="1" as="geometry">
            <mxPoint x="760.75" y="1313.5" as="sourcePoint"/>
            <mxPoint x="760.75" y="1327.5" as="targetPoint"/>
          </mxGeometry>
        </mxCell>
        <mxCell id="YC8aZW9m34SwdmUY51Wp-10" value="BLSTM" style="rounded=0;whiteSpace=wrap;html=1;fillColor=none;fontFamily=Times New Roman;fontSize=13;strokeColor=#FF0000;" vertex="1" parent="1">
          <mxGeometry x="728" y="1327.5" width="45" height="22" as="geometry"/>
        </mxCell>
        <mxCell id="YC8aZW9m34SwdmUY51Wp-11" value="&lt;font style=&quot;font-size: 15px&quot;&gt;特征图&lt;br&gt;1&lt;/font&gt;" style="shape=cube;whiteSpace=wrap;html=1;boundedLbl=1;backgroundOutline=1;darkOpacity=0.05;darkOpacity2=0.1;fillColor=none;direction=south;size=11;fontFamily=Times New Roman;strokeColor=#0000FF;strokeWidth=1;" vertex="1" parent="1">
          <mxGeometry x="510" y="1295" width="35" height="190" as="geometry"/>
        </mxCell>
        <mxCell id="YC8aZW9m34SwdmUY51Wp-12" value="&lt;font style=&quot;font-size: 15px&quot;&gt;特征图&lt;br&gt;&lt;i&gt;i&lt;/i&gt;&lt;/font&gt;" style="shape=cube;whiteSpace=wrap;html=1;boundedLbl=1;backgroundOutline=1;darkOpacity=0.05;darkOpacity2=0.1;fillColor=none;direction=south;size=11;fontStyle=0;fontFamily=Times New Roman;strokeColor=#0000FF;" vertex="1" parent="1">
          <mxGeometry x="577" y="1295" width="35" height="190" as="geometry"/>
        </mxCell>
        <mxCell id="YC8aZW9m34SwdmUY51Wp-13" value="&lt;font style=&quot;font-size: 15px&quot;&gt;特征图&lt;br&gt;32&lt;/font&gt;" style="shape=cube;whiteSpace=wrap;html=1;boundedLbl=1;backgroundOutline=1;darkOpacity=0.05;darkOpacity2=0.1;fillColor=none;direction=south;size=11;fontStyle=0;fontFamily=Times New Roman;strokeColor=#0000FF;" vertex="1" parent="1">
          <mxGeometry x="644" y="1295" width="35" height="190" as="geometry"/>
        </mxCell>
        <mxCell id="YC8aZW9m34SwdmUY51Wp-14" value="卷积层" style="rounded=0;whiteSpace=wrap;html=1;fillColor=none;fontSize=18;fontFamily=Times New Roman;strokeColor=#00FF00;" vertex="1" parent="1">
          <mxGeometry x="160" y="1344.5" width="80" height="60" as="geometry"/>
        </mxCell>
        <mxCell id="YC8aZW9m34SwdmUY51Wp-15" value="池化" style="rounded=0;whiteSpace=wrap;html=1;fillColor=none;fontSize=18;fontFamily=Times New Roman;strokeColor=#00FF00;" vertex="1" parent="1">
          <mxGeometry x="240" y="1344.5" width="50" height="60" as="geometry"/>
        </mxCell>
        <mxCell id="YC8aZW9m34SwdmUY51Wp-16" value="BLSTM" style="rounded=0;whiteSpace=wrap;html=1;fillColor=none;fontFamily=Times New Roman;fontSize=13;strokeColor=#FF0000;" vertex="1" parent="1">
          <mxGeometry x="728" y="1291.5" width="45" height="22" as="geometry"/>
        </mxCell>
        <mxCell id="YC8aZW9m34SwdmUY51Wp-17" value="卷积层" style="rounded=0;whiteSpace=wrap;html=1;fillColor=none;fontSize=18;fontFamily=Times New Roman;strokeColor=#00FF00;" vertex="1" parent="1">
          <mxGeometry x="315" y="1344.5" width="80" height="60" as="geometry"/>
        </mxCell>
        <mxCell id="YC8aZW9m34SwdmUY51Wp-18" value="池化" style="rounded=0;whiteSpace=wrap;html=1;fillColor=none;fontSize=18;fontFamily=Times New Roman;strokeColor=#00FF00;" vertex="1" parent="1">
          <mxGeometry x="395" y="1344.5" width="50" height="60" as="geometry"/>
        </mxCell>
        <mxCell id="YC8aZW9m34SwdmUY51Wp-19" value="CNN网络" style="text;html=1;strokeColor=none;fillColor=none;align=center;verticalAlign=middle;whiteSpace=wrap;rounded=0;fontSize=18;fontFamily=Times New Roman;" vertex="1" parent="1">
          <mxGeometry x="232.5" y="1304.5" width="120" height="40" as="geometry"/>
        </mxCell>
        <mxCell id="YC8aZW9m34SwdmUY51Wp-20" value="1*100*64" style="text;html=1;strokeColor=none;fillColor=none;align=center;verticalAlign=middle;whiteSpace=wrap;rounded=0;fontSize=18;fontFamily=Times New Roman;" vertex="1" parent="1">
          <mxGeometry x="191" y="1414.5" width="124" height="20" as="geometry"/>
        </mxCell>
        <mxCell id="YC8aZW9m34SwdmUY51Wp-21" value="1*50*32" style="text;html=1;strokeColor=none;fillColor=none;align=center;verticalAlign=middle;whiteSpace=wrap;rounded=0;fontSize=18;fontFamily=Times New Roman;" vertex="1" parent="1">
          <mxGeometry x="345.5" y="1414.5" width="124" height="20" as="geometry"/>
        </mxCell>
        <mxCell id="YC8aZW9m34SwdmUY51Wp-22" value="" style="shape=curlyBracket;whiteSpace=wrap;html=1;rounded=1;fillColor=none;fontSize=18;fontFamily=Times New Roman;strokeColor=#0000FF;" vertex="1" parent="1">
          <mxGeometry x="484" y="1305" width="20" height="175" as="geometry"/>
        </mxCell>
        <mxCell id="YC8aZW9m34SwdmUY51Wp-23" value="50" style="text;html=1;resizable=0;points=[];autosize=1;align=left;verticalAlign=top;spacingTop=-4;fontSize=18;fontFamily=Times New Roman;strokeColor=none;" vertex="1" parent="1">
          <mxGeometry x="471.5" y="1395" width="40" height="20" as="geometry"/>
        </mxCell>
        <mxCell id="YC8aZW9m34SwdmUY51Wp-24" value="" style="shape=curlyBracket;whiteSpace=wrap;html=1;rounded=1;fillColor=none;fontSize=18;direction=south;fontFamily=Times New Roman;strokeColor=#0000FF;" vertex="1" parent="1">
          <mxGeometry x="516" y="1269" width="158" height="20" as="geometry"/>
        </mxCell>
        <mxCell id="YC8aZW9m34SwdmUY51Wp-25" value="特征向量&lt;br&gt;&amp;nbsp; &amp;nbsp; &amp;nbsp; 32" style="text;html=1;resizable=0;points=[];autosize=1;align=left;verticalAlign=top;spacingTop=-4;fontSize=18;fontFamily=Times New Roman;strokeColor=none;" vertex="1" parent="1">
          <mxGeometry x="557" y="1230" width="90" height="40" as="geometry"/>
        </mxCell>
        <mxCell id="YC8aZW9m34SwdmUY51Wp-26" value="" style="endArrow=none;dashed=1;html=1;fontSize=18;entryX=0;entryY=0;entryDx=11;entryDy=35;entryPerimeter=0;exitX=0;exitY=0;exitDx=11;exitDy=35;exitPerimeter=0;fontFamily=Times New Roman;strokeColor=#0000FF;" edge="1" parent="1" source="YC8aZW9m34SwdmUY51Wp-13" target="YC8aZW9m34SwdmUY51Wp-11">
          <mxGeometry width="50" height="50" relative="1" as="geometry">
            <mxPoint x="267" y="1294" as="sourcePoint"/>
            <mxPoint x="509" y="1300" as="targetPoint"/>
          </mxGeometry>
        </mxCell>
        <mxCell id="YC8aZW9m34SwdmUY51Wp-27" value="" style="endArrow=none;dashed=1;html=1;fontSize=18;entryX=0;entryY=0;entryDx=0;entryDy=24;entryPerimeter=0;exitX=0;exitY=0;exitDx=0;exitDy=24;exitPerimeter=0;fontFamily=Times New Roman;strokeColor=#0000FF;" edge="1" parent="1" source="YC8aZW9m34SwdmUY51Wp-13" target="YC8aZW9m34SwdmUY51Wp-11">
          <mxGeometry width="50" height="50" relative="1" as="geometry">
            <mxPoint x="389" y="1310" as="sourcePoint"/>
            <mxPoint x="439" y="1260" as="targetPoint"/>
          </mxGeometry>
        </mxCell>
        <mxCell id="YC8aZW9m34SwdmUY51Wp-28" value="" style="endArrow=none;dashed=1;html=1;fontSize=18;entryX=0.149;entryY=1;entryDx=0;entryDy=0;entryPerimeter=0;exitX=0.149;exitY=0.286;exitDx=0;exitDy=0;exitPerimeter=0;fontFamily=Times New Roman;strokeColor=#0000FF;" edge="1" parent="1">
          <mxGeometry width="50" height="50" relative="1" as="geometry">
            <mxPoint x="668.99" y="1326.31" as="sourcePoint"/>
            <mxPoint x="510" y="1326.31" as="targetPoint"/>
          </mxGeometry>
        </mxCell>
        <mxCell id="YC8aZW9m34SwdmUY51Wp-29" value="" style="endArrow=none;dashed=1;html=1;fontSize=18;entryX=0.112;entryY=0.009;entryDx=0;entryDy=0;entryPerimeter=0;exitX=0.114;exitY=0.743;exitDx=0;exitDy=0;exitPerimeter=0;fontFamily=Times New Roman;strokeColor=#0000FF;" edge="1" parent="1" source="YC8aZW9m34SwdmUY51Wp-11" target="YC8aZW9m34SwdmUY51Wp-13">
          <mxGeometry width="50" height="50" relative="1" as="geometry">
            <mxPoint x="409" y="1330" as="sourcePoint"/>
            <mxPoint x="459" y="1280" as="targetPoint"/>
          </mxGeometry>
        </mxCell>
        <mxCell id="YC8aZW9m34SwdmUY51Wp-30" value="" style="endArrow=none;dashed=1;html=1;fontSize=18;fontFamily=Times New Roman;strokeColor=#0000FF;" edge="1" parent="1">
          <mxGeometry width="50" height="50" relative="1" as="geometry">
            <mxPoint x="510" y="1465" as="sourcePoint"/>
            <mxPoint x="669" y="1465" as="targetPoint"/>
          </mxGeometry>
        </mxCell>
        <mxCell id="YC8aZW9m34SwdmUY51Wp-31" value="" style="endArrow=none;dashed=1;html=1;fontSize=18;fontFamily=Times New Roman;strokeColor=#0000FF;" edge="1" parent="1">
          <mxGeometry width="50" height="50" relative="1" as="geometry">
            <mxPoint x="510" y="1485" as="sourcePoint"/>
            <mxPoint x="669" y="1485" as="targetPoint"/>
          </mxGeometry>
        </mxCell>
        <mxCell id="YC8aZW9m34SwdmUY51Wp-32" value="" style="endArrow=none;dashed=1;html=1;fontSize=18;fontFamily=Times New Roman;strokeColor=#0000FF;" edge="1" parent="1">
          <mxGeometry width="50" height="50" relative="1" as="geometry">
            <mxPoint x="520" y="1455" as="sourcePoint"/>
            <mxPoint x="679" y="1455" as="targetPoint"/>
          </mxGeometry>
        </mxCell>
        <mxCell id="YC8aZW9m34SwdmUY51Wp-33" value="" style="endArrow=none;html=1;fontSize=18;fontFamily=Times New Roman;strokeColor=#0000FF;" edge="1" parent="1">
          <mxGeometry width="50" height="50" relative="1" as="geometry">
            <mxPoint x="669" y="1326.5" as="sourcePoint"/>
            <mxPoint x="679" y="1316.5" as="targetPoint"/>
          </mxGeometry>
        </mxCell>
        <mxCell id="YC8aZW9m34SwdmUY51Wp-34" value="" style="endArrow=none;dashed=1;html=1;fontSize=18;fontFamily=Times New Roman;strokeColor=#0000FF;" edge="1" parent="1">
          <mxGeometry width="50" height="50" relative="1" as="geometry">
            <mxPoint x="510" y="1326.5" as="sourcePoint"/>
            <mxPoint x="520" y="1316.5" as="targetPoint"/>
          </mxGeometry>
        </mxCell>
        <mxCell id="YC8aZW9m34SwdmUY51Wp-35" value="" style="endArrow=none;dashed=1;html=1;fontSize=18;fontFamily=Times New Roman;strokeColor=#0000FF;" edge="1" parent="1">
          <mxGeometry width="50" height="50" relative="1" as="geometry">
            <mxPoint x="510" y="1465" as="sourcePoint"/>
            <mxPoint x="520" y="1455" as="targetPoint"/>
          </mxGeometry>
        </mxCell>
        <mxCell id="YC8aZW9m34SwdmUY51Wp-36" value="" style="endArrow=none;html=1;fontSize=18;fontFamily=Times New Roman;strokeColor=#0000FF;" edge="1" parent="1">
          <mxGeometry width="50" height="50" relative="1" as="geometry">
            <mxPoint x="668" y="1465" as="sourcePoint"/>
            <mxPoint x="678" y="1455" as="targetPoint"/>
          </mxGeometry>
        </mxCell>
        <mxCell id="YC8aZW9m34SwdmUY51Wp-37" value="均值池化特征" style="rounded=1;whiteSpace=wrap;html=1;fillColor=none;fontSize=18;fontFamily=Times New Roman;strokeColor=#FF0080;strokeWidth=1;" vertex="1" parent="1">
          <mxGeometry x="809" y="1286" width="50" height="190" as="geometry"/>
        </mxCell>
        <mxCell id="YC8aZW9m34SwdmUY51Wp-38" value="" style="shape=cross;whiteSpace=wrap;html=1;fillColor=none;fontSize=18;fontFamily=Times New Roman;strokeColor=#000000;" vertex="1" parent="1">
          <mxGeometry x="861" y="1350" width="30" height="35" as="geometry"/>
        </mxCell>
        <mxCell id="YC8aZW9m34SwdmUY51Wp-39" value="优势特征" style="rounded=1;whiteSpace=wrap;html=1;fillColor=none;fontSize=18;fontFamily=Times New Roman;strokeColor=#FF0080;" vertex="1" parent="1">
          <mxGeometry x="894" y="1284" width="50" height="190" as="geometry"/>
        </mxCell>
        <mxCell id="YC8aZW9m34SwdmUY51Wp-40" value="全连接层&lt;br&gt;+&lt;br&gt;soft&lt;br&gt;max&lt;br&gt;层" style="rounded=1;whiteSpace=wrap;html=1;fillColor=none;fontSize=18;fontFamily=Times New Roman;strokeColor=#6600CC;" vertex="1" parent="1">
          <mxGeometry x="1035" y="1284" width="50" height="190" as="geometry"/>
        </mxCell>
        <mxCell id="YC8aZW9m34SwdmUY51Wp-41" value="当前行为&lt;br&gt;类别输出" style="rounded=1;whiteSpace=wrap;html=1;fillColor=none;fontSize=18;fontFamily=Times New Roman;strokeColor=#6600CC;" vertex="1" parent="1">
          <mxGeometry x="1104" y="1284" width="50" height="190" as="geometry"/>
        </mxCell>
        <mxCell id="YC8aZW9m34SwdmUY51Wp-42" value="" style="shape=flexArrow;endArrow=classic;html=1;fontFamily=Times New Roman;strokeColor=#000000;" edge="1" parent="1">
          <mxGeometry width="50" height="50" relative="1" as="geometry">
            <mxPoint x="938" y="1370.5" as="sourcePoint"/>
            <mxPoint x="967" y="1370.5" as="targetPoint"/>
          </mxGeometry>
        </mxCell>
        <mxCell id="YC8aZW9m34SwdmUY51Wp-43" value="BLSTM网络" style="text;html=1;strokeColor=none;fillColor=none;align=center;verticalAlign=middle;whiteSpace=wrap;rounded=0;fontSize=18;fontFamily=Times New Roman;" vertex="1" parent="1">
          <mxGeometry x="721.5" y="1257.5" width="59" height="20" as="geometry"/>
        </mxCell>
        <mxCell id="YC8aZW9m34SwdmUY51Wp-44" value="" style="endArrow=none;dashed=1;html=1;fontSize=18;entryX=0.149;entryY=1;entryDx=0;entryDy=0;entryPerimeter=0;exitX=0.149;exitY=0.286;exitDx=0;exitDy=0;exitPerimeter=0;fontFamily=Times New Roman;strokeColor=#0000FF;" edge="1" parent="1">
          <mxGeometry width="50" height="50" relative="1" as="geometry">
            <mxPoint x="668" y="1344.31" as="sourcePoint"/>
            <mxPoint x="510" y="1344.31" as="targetPoint"/>
          </mxGeometry>
        </mxCell>
        <mxCell id="YC8aZW9m34SwdmUY51Wp-45" value="传感器通道1" style="rounded=0;whiteSpace=wrap;html=1;fillColor=none;fontSize=18;fontFamily=Times New Roman;strokeColor=#9933FF;" vertex="1" parent="1">
          <mxGeometry x="4" y="1282" width="118" height="40" as="geometry"/>
        </mxCell>
        <mxCell id="YC8aZW9m34SwdmUY51Wp-46" value="传感器通道&lt;i&gt;i&lt;/i&gt;" style="rounded=0;whiteSpace=wrap;html=1;fillColor=none;fontSize=18;fontFamily=Times New Roman;strokeColor=#9933FF;" vertex="1" parent="1">
          <mxGeometry x="4" y="1351" width="118" height="40" as="geometry"/>
        </mxCell>
        <mxCell id="YC8aZW9m34SwdmUY51Wp-47" value="传感器通道12" style="rounded=0;whiteSpace=wrap;html=1;fillColor=none;fontSize=18;fontFamily=Times New Roman;strokeColor=#9933FF;" vertex="1" parent="1">
          <mxGeometry x="4" y="1420" width="118" height="40" as="geometry"/>
        </mxCell>
        <mxCell id="YC8aZW9m34SwdmUY51Wp-48" value="&lt;b&gt;…&lt;/b&gt;" style="text;html=1;strokeColor=none;fillColor=none;align=center;verticalAlign=middle;whiteSpace=wrap;rounded=0;fontFamily=Times New Roman;fontSize=18;direction=west;" vertex="1" parent="1">
          <mxGeometry x="604" y="1377.5" width="40" height="20" as="geometry"/>
        </mxCell>
        <mxCell id="YC8aZW9m34SwdmUY51Wp-49" value="&lt;b&gt;…&lt;/b&gt;" style="text;html=1;strokeColor=none;fillColor=none;align=center;verticalAlign=middle;whiteSpace=wrap;rounded=0;fontFamily=Times New Roman;fontSize=18;direction=west;rotation=90;strokeWidth=7;" vertex="1" parent="1">
          <mxGeometry x="45.5" y="1326.5" width="40" height="20" as="geometry"/>
        </mxCell>
        <mxCell id="YC8aZW9m34SwdmUY51Wp-50" value="&lt;b&gt;…&lt;/b&gt;" style="text;html=1;strokeColor=none;fillColor=none;align=center;verticalAlign=middle;whiteSpace=wrap;rounded=0;fontFamily=Times New Roman;fontSize=18;direction=west;rotation=90;" vertex="1" parent="1">
          <mxGeometry x="45.5" y="1395" width="40" height="20" as="geometry"/>
        </mxCell>
        <mxCell id="YC8aZW9m34SwdmUY51Wp-51" value="&lt;b&gt;…&lt;/b&gt;" style="text;html=1;strokeColor=none;fillColor=none;align=center;verticalAlign=middle;whiteSpace=wrap;rounded=0;fontFamily=Times New Roman;fontSize=18;direction=west;" vertex="1" parent="1">
          <mxGeometry x="537.5" y="1377.5" width="40" height="20" as="geometry"/>
        </mxCell>
        <mxCell id="YC8aZW9m34SwdmUY51Wp-52" value="&lt;b&gt;&lt;font style=&quot;font-size: 18px&quot;&gt;…&lt;/font&gt;&lt;/b&gt;" style="text;html=1;strokeColor=none;fillColor=none;align=center;verticalAlign=middle;whiteSpace=wrap;rounded=0;fontFamily=Times New Roman;fontSize=13;direction=west;rotation=90;" vertex="1" parent="1">
          <mxGeometry x="746.5" y="1399.5" width="17" height="13" as="geometry"/>
        </mxCell>
        <mxCell id="YC8aZW9m34SwdmUY51Wp-53" value="输入数据" style="text;html=1;strokeColor=none;fillColor=none;align=center;verticalAlign=middle;whiteSpace=wrap;rounded=0;fontFamily=Times New Roman;fontSize=18;" vertex="1" parent="1">
          <mxGeometry x="9" y="1258" width="100" height="20" as="geometry"/>
        </mxCell>
        <mxCell id="YC8aZW9m34SwdmUY51Wp-54" value="" style="shape=flexArrow;endArrow=classic;html=1;fontFamily=Times New Roman;fontSize=18;width=7.5;endSize=7.986111111111111;endWidth=11.527777777777777;" edge="1" parent="1">
          <mxGeometry width="50" height="50" relative="1" as="geometry">
            <mxPoint x="676" y="1305" as="sourcePoint"/>
            <mxPoint x="719.5" y="1305" as="targetPoint"/>
          </mxGeometry>
        </mxCell>
        <mxCell id="YC8aZW9m34SwdmUY51Wp-55" value="" style="shape=flexArrow;endArrow=classic;html=1;fontFamily=Times New Roman;fontSize=18;width=7.5;endSize=7.986111111111111;endWidth=11.527777777777777;" edge="1" parent="1">
          <mxGeometry width="50" height="50" relative="1" as="geometry">
            <mxPoint x="676" y="1336" as="sourcePoint"/>
            <mxPoint x="719.5" y="1336" as="targetPoint"/>
          </mxGeometry>
        </mxCell>
        <mxCell id="YC8aZW9m34SwdmUY51Wp-56" value="BLSTM" style="rounded=0;whiteSpace=wrap;html=1;fillColor=none;fontFamily=Times New Roman;fontSize=13;strokeColor=#FF0000;" vertex="1" parent="1">
          <mxGeometry x="728.5" y="1427.5" width="45" height="22" as="geometry"/>
        </mxCell>
        <mxCell id="YC8aZW9m34SwdmUY51Wp-57" value="BLSTM" style="rounded=0;whiteSpace=wrap;html=1;fillColor=none;fontFamily=Times New Roman;fontSize=13;strokeColor=#FF0000;" vertex="1" parent="1">
          <mxGeometry x="728.5" y="1463.5" width="45" height="22" as="geometry"/>
        </mxCell>
        <mxCell id="YC8aZW9m34SwdmUY51Wp-58" value="" style="shape=flexArrow;endArrow=classic;html=1;fontFamily=Times New Roman;fontSize=18;width=7.5;endSize=7.986111111111111;endWidth=11.527777777777777;" edge="1" parent="1">
          <mxGeometry width="50" height="50" relative="1" as="geometry">
            <mxPoint x="675.5" y="1469.5" as="sourcePoint"/>
            <mxPoint x="719" y="1469.5" as="targetPoint"/>
          </mxGeometry>
        </mxCell>
        <mxCell id="YC8aZW9m34SwdmUY51Wp-59" value="BLSTM" style="rounded=0;whiteSpace=wrap;html=1;fillColor=none;fontFamily=Times New Roman;fontSize=13;strokeColor=#FF0000;" vertex="1" parent="1">
          <mxGeometry x="728" y="1364" width="45" height="22" as="geometry"/>
        </mxCell>
        <mxCell id="YC8aZW9m34SwdmUY51Wp-60" value="" style="shape=flexArrow;endArrow=classic;html=1;fontFamily=Times New Roman;fontSize=18;width=7.5;endSize=7.986111111111111;endWidth=11.527777777777777;" edge="1" parent="1">
          <mxGeometry width="50" height="50" relative="1" as="geometry">
            <mxPoint x="675.5" y="1374.5" as="sourcePoint"/>
            <mxPoint x="719" y="1374.5" as="targetPoint"/>
          </mxGeometry>
        </mxCell>
        <mxCell id="YC8aZW9m34SwdmUY51Wp-61" value="1*200" style="text;html=1;strokeColor=none;fillColor=none;align=center;verticalAlign=middle;whiteSpace=wrap;rounded=0;fontFamily=Times New Roman;fontSize=18;" vertex="1" parent="1">
          <mxGeometry x="69" y="1325" width="40" height="20" as="geometry"/>
        </mxCell>
        <mxCell id="YC8aZW9m34SwdmUY51Wp-62" value="1*200" style="text;html=1;strokeColor=none;fillColor=none;align=center;verticalAlign=middle;whiteSpace=wrap;rounded=0;fontFamily=Times New Roman;fontSize=18;" vertex="1" parent="1">
          <mxGeometry x="68" y="1397" width="40" height="20" as="geometry"/>
        </mxCell>
        <mxCell id="YC8aZW9m34SwdmUY51Wp-63" value="1*200" style="text;html=1;strokeColor=none;fillColor=none;align=center;verticalAlign=middle;whiteSpace=wrap;rounded=0;fontFamily=Times New Roman;fontSize=18;" vertex="1" parent="1">
          <mxGeometry x="68" y="1459" width="40" height="20" as="geometry"/>
        </mxCell>
        <mxCell id="YC8aZW9m34SwdmUY51Wp-64" value="" style="shape=flexArrow;endArrow=classic;html=1;fontFamily=Times New Roman;strokeColor=#000000;" edge="1" parent="1">
          <mxGeometry width="50" height="50" relative="1" as="geometry">
            <mxPoint x="784.5" y="1370.5" as="sourcePoint"/>
            <mxPoint x="813.5" y="1370.5" as="targetPoint"/>
          </mxGeometry>
        </mxCell>
        <mxCell id="YC8aZW9m34SwdmUY51Wp-65" value="" style="shape=flexArrow;endArrow=classic;html=1;fontFamily=Times New Roman;strokeColor=#000000;" edge="1" parent="1">
          <mxGeometry width="50" height="50" relative="1" as="geometry">
            <mxPoint x="448.49999999999955" y="1375.5" as="sourcePoint"/>
            <mxPoint x="477.5" y="1375.5" as="targetPoint"/>
          </mxGeometry>
        </mxCell>
        <mxCell id="YC8aZW9m34SwdmUY51Wp-66" value="" style="shape=flexArrow;endArrow=classic;html=1;fontFamily=Times New Roman;" edge="1" parent="1">
          <mxGeometry width="50" height="50" relative="1" as="geometry">
            <mxPoint x="129.99999999999955" y="1375.5" as="sourcePoint"/>
            <mxPoint x="159" y="1375.5" as="targetPoint"/>
          </mxGeometry>
        </mxCell>
        <mxCell id="YC8aZW9m34SwdmUY51Wp-67" value="" style="shape=flexArrow;endArrow=classic;html=1;fontFamily=Times New Roman;strokeColor=#000000;" edge="1" parent="1">
          <mxGeometry width="50" height="50" relative="1" as="geometry">
            <mxPoint x="289.99999999999955" y="1375.5" as="sourcePoint"/>
            <mxPoint x="315" y="1375.5" as="targetPoint"/>
          </mxGeometry>
        </mxCell>
        <mxCell id="YC8aZW9m34SwdmUY51Wp-68" value="&lt;b&gt;…&lt;/b&gt;" style="text;html=1;strokeColor=none;fillColor=none;align=center;verticalAlign=middle;whiteSpace=wrap;rounded=0;fontFamily=Times New Roman;fontSize=18;direction=west;rotation=90;" vertex="1" parent="1">
          <mxGeometry x="682.5" y="1415" width="40" height="10" as="geometry"/>
        </mxCell>
        <mxCell id="YC8aZW9m34SwdmUY51Wp-69" value="" style="endArrow=classic;html=1;exitX=0.25;exitY=0;exitDx=0;exitDy=0;entryX=0.25;entryY=1;entryDx=0;entryDy=0;strokeColor=#000000;" edge="1" parent="1" source="YC8aZW9m34SwdmUY51Wp-10" target="YC8aZW9m34SwdmUY51Wp-16">
          <mxGeometry width="50" height="50" relative="1" as="geometry">
            <mxPoint x="627" y="1359.5" as="sourcePoint"/>
            <mxPoint x="677" y="1309.5" as="targetPoint"/>
          </mxGeometry>
        </mxCell>
        <mxCell id="YC8aZW9m34SwdmUY51Wp-70" value="" style="endArrow=classic;html=1;exitX=0.25;exitY=0;exitDx=0;exitDy=0;entryX=0.25;entryY=1;entryDx=0;entryDy=0;strokeColor=#000000;" edge="1" parent="1">
          <mxGeometry width="50" height="50" relative="1" as="geometry">
            <mxPoint x="738.75" y="1364" as="sourcePoint"/>
            <mxPoint x="738.75" y="1349.5" as="targetPoint"/>
          </mxGeometry>
        </mxCell>
        <mxCell id="YC8aZW9m34SwdmUY51Wp-71" value="" style="endArrow=classic;html=1;exitX=0.25;exitY=0;exitDx=0;exitDy=0;entryX=0.25;entryY=1;entryDx=0;entryDy=0;strokeColor=#000000;" edge="1" parent="1">
          <mxGeometry width="50" height="50" relative="1" as="geometry">
            <mxPoint x="738.75" y="1463.5" as="sourcePoint"/>
            <mxPoint x="738.75" y="1449.5" as="targetPoint"/>
          </mxGeometry>
        </mxCell>
        <mxCell id="YC8aZW9m34SwdmUY51Wp-72" value="" style="endArrow=classic;html=1;exitX=0.25;exitY=0;exitDx=0;exitDy=0;entryX=0.25;entryY=1;entryDx=0;entryDy=0;strokeColor=#000000;" edge="1" parent="1">
          <mxGeometry width="50" height="50" relative="1" as="geometry">
            <mxPoint x="760.75" y="1349.5" as="sourcePoint"/>
            <mxPoint x="760.75" y="1363.5" as="targetPoint"/>
          </mxGeometry>
        </mxCell>
        <mxCell id="YC8aZW9m34SwdmUY51Wp-73" value="" style="endArrow=classic;html=1;exitX=0.25;exitY=0;exitDx=0;exitDy=0;entryX=0.25;entryY=1;entryDx=0;entryDy=0;strokeColor=#000000;" edge="1" parent="1">
          <mxGeometry width="50" height="50" relative="1" as="geometry">
            <mxPoint x="760.75" y="1449.5" as="sourcePoint"/>
            <mxPoint x="760.75" y="1463.5" as="targetPoint"/>
          </mxGeometry>
        </mxCell>
        <mxCell id="YC8aZW9m34SwdmUY51Wp-74" value="" style="shape=flexArrow;endArrow=classic;html=1;fontFamily=Times New Roman;strokeColor=#000000;" edge="1" parent="1">
          <mxGeometry width="50" height="50" relative="1" as="geometry">
            <mxPoint x="1081" y="1370.5" as="sourcePoint"/>
            <mxPoint x="1110" y="1370.5" as="targetPoint"/>
          </mxGeometry>
        </mxCell>
        <mxCell id="YC8aZW9m34SwdmUY51Wp-75" value="特征融合" style="text;html=1;strokeColor=none;fillColor=none;align=center;verticalAlign=middle;whiteSpace=wrap;rounded=0;fontSize=18;" vertex="1" parent="1">
          <mxGeometry x="827" y="1255.5" width="79" height="20" as="geometry"/>
        </mxCell>
        <mxCell id="YC8aZW9m34SwdmUY51Wp-76" value="融合特征向量" style="rounded=1;whiteSpace=wrap;html=1;fillColor=none;fontSize=18;fontFamily=Times New Roman;strokeColor=#FF0080;" vertex="1" parent="1">
          <mxGeometry x="960" y="1284" width="50" height="190" as="geometry"/>
        </mxCell>
        <mxCell id="YC8aZW9m34SwdmUY51Wp-77" value="" style="shape=flexArrow;endArrow=classic;html=1;fontFamily=Times New Roman;strokeColor=#000000;" edge="1" parent="1">
          <mxGeometry width="50" height="50" relative="1" as="geometry">
            <mxPoint x="1013" y="1370.5" as="sourcePoint"/>
            <mxPoint x="1042" y="1370.5" as="targetPoint"/>
          </mxGeometry>
        </mxCell>
        <mxCell id="YC8aZW9m34SwdmUY51Wp-78" value="" style="rounded=1;whiteSpace=wrap;html=1;fillColor=none;strokeWidth=2;strokeColor=#FF0080;" vertex="1" parent="1">
          <mxGeometry x="802.5" y="1245.5" width="213" height="240" as="geometry"/>
        </mxCell>
        <mxCell id="YC8aZW9m34SwdmUY51Wp-79" value="" style="rounded=1;whiteSpace=wrap;html=1;fillColor=none;strokeWidth=2;strokeColor=#6600CC;" vertex="1" parent="1">
          <mxGeometry x="1029" y="1245.5" width="132" height="240" as="geometry"/>
        </mxCell>
        <mxCell id="YC8aZW9m34SwdmUY51Wp-80" value="&lt;font style=&quot;font-size: 18px&quot;&gt;行为分类&lt;/font&gt;" style="text;html=1;strokeColor=none;fillColor=none;align=center;verticalAlign=middle;whiteSpace=wrap;rounded=0;" vertex="1" parent="1">
          <mxGeometry x="1043" y="1255.5" width="80" height="20" as="geometry"/>
        </mxCell>
        <mxCell id="YC8aZW9m34SwdmUY51Wp-81" value="Text" style="text;html=1;align=center;verticalAlign=middle;resizable=0;points=[];;autosize=1;" vertex="1" parent="1">
          <mxGeometry x="911" y="1641" width="40" height="20" as="geometry"/>
        </mxCell>
      </root>
    </mxGraphModel>
  </diagram>
</mxfile>
